ply
format ascii 1.0
comment Created by Blender 2.79 (sub 0) - www.blender.org, source file: ''
element vertex 8
property float x
property float y
property float z
property float nx
property float ny
property float nz
end_header
1.000000 1.000000 -1.000000 0.000000 0.000000 -1.000000
1.000000 -1.000000 -1.000000 0.000000 0.000000 -1.000000
-1.000000 -1.000000 -1.000000 0.000000 0.000000 -1.000000
-1.000000 1.000000 -1.000000 0.000000 0.000000 -1.000000
1.000000 0.999999 1.000000 0.000000 -0.000000 1.000000
-1.000000 1.000000 1.000000 0.000000 -0.000000 1.000000
-1.000000 -1.000000 1.000000 0.000000 -0.000000 1.000000
0.999999 -1.000001 1.000000 0.000000 -0.000000 1.000000
